# xmcd
#
# Track frame offsets:
#	150
#	16510
#	34700
#	58298
#	75508
#	102848
#	117863
#	136165
#	151728
#	172350
#	187618
#	205498
#
# Disc length: 2928 seconds
#
# Revision: 1
# Processed by: cddbd v1.5.2PL0 Copyright (c) Steve Scherf et al.
# Submitted via: audiograbber 1.83.01
#
DISCID=900b6e0c
DTITLE=Various Artist - Country Kicks Vol 3
DYEAR=1900
DGENRE=Remixes
TTITLE0=Wynonna - Rock Bottom
TTITLE1=Lee Roy Parnell - I'm Holding My Own
TTITLE2=Tim McGraw - Indian Outlaw
TTITLE3=Reba McEntire - Why Haven't I Heard From You
TTITLE4=Clarence Carter - Strokin'
TTITLE5=Neal McCoy - Wink
TTITLE6=Kathy Mattea - Walking Away A Winner
TTITLE7=Carlene Carter - Come On Back
TTITLE8=Alabama - Cheap Seats
TTITLE9=John Michael Montgomery - Be My Baby Tonight
TTITLE10=Travis Tritt - T-R-O-U-B-L-E
TTITLE11=Wayne King - Roundup Time At JB's Corral
EXTD=
EXTT0=
EXTT1=
EXTT2=
EXTT3=
EXTT4=
EXTT5=
EXTT6=
EXTT7=
EXTT8=
EXTT9=
EXTT10=
EXTT11=
PLAYORDER=
